<svg width="24" height="24" viewBox="0 0 24 24" fill="none" xmlns="http://www.w3.org/2000/svg">
<path fill-rule="evenodd" clip-rule="evenodd" d="M13.8654 2.27771C16.7616 3.1235 19 5.94082 19 10C19 12.6246 19.5317 14.1024 20.5154 15.1769C20.7592 15.4433 21.616 16.2145 21.712 16.3119L22 16.604V20.0141H15.8743C15.6241 20.9989 15.0075 21.8614 14.0878 22.4226C12.8059 23.2049 11.1941 23.2049 9.9122 22.4226C8.87009 21.7867 8.29384 21.0761 8.08798 20.0141H2V16.604L2.28796 16.3119C2.39205 16.2071 3.24384 15.4428 3.48596 15.1793C4.46898 14.1098 5 12.6339 5 10C5 5.92919 7.23535 3.11803 10.1353 2.27592C10.2402 2.00525 10.4057 1.75364 10.6305 1.54243C11.4003 0.81919 12.5997 0.81919 13.3695 1.54243C13.5948 1.7541 13.7605 2.00636 13.8654 2.27771ZM13.7367 20.0141H10.1786C10.3199 20.2769 10.5607 20.4754 10.954 20.7154C11.5963 21.1073 12.4037 21.1073 13.046 20.7154C13.3434 20.5339 13.5758 20.2937 13.7367 20.0141ZM20 17.4519C19.7016 17.1774 19.2506 16.7573 19.0402 16.5274C17.706 15.07 17 13.1078 17 10C17 6.23129 14.6597 4.01238 12 4.01238C9.33277 4.01238 7 6.21989 7 10C7 13.1178 6.29422 15.0794 4.95849 16.5327C4.74843 16.7613 4.29607 17.1811 4 17.4524V18.0141H20V17.4519ZM12.0003 15.9983C11.4479 15.9983 11 15.5506 11 14.9983C11 14.4461 11.4479 13.9983 12.0003 13.9983C12.5528 13.9983 13.0007 14.4461 13.0007 14.9983C13.0007 15.5506 12.5528 15.9983 12.0003 15.9983ZM11.003 6.99835H13.0036V12.9983H11.003V6.99835Z" fill="white"/>
</svg>
