<svg viewBox="0 0 24 24" fill="none" xmlns="http://www.w3.org/2000/svg">
  <path d="M12 22C17.5228 22 22 17.5228 22 12C22 6.47715 17.5228 2 12 2C6.47715 2 2 6.47715 2 12C2 17.5228 6.47715 22 12 22Z" stroke="currentColor" stroke-width="2" stroke-linecap="round" stroke-linejoin="round"/>
  <path d="M8 3H9C7.89543 3 7 3.89543 7 5V8C7 9.10457 7.89543 10 9 10H11C12.1046 10 13 10.8954 13 12V14C13 15.1046 13.8954 16 15 16H17C18.1046 16 19 16.8954 19 18V19" stroke="currentColor" stroke-width="2" stroke-linecap="round" stroke-linejoin="round"/>
</svg>